<svg width="800" height="259" viewBox="0 0 800 259" fill="none" xmlns="http://www.w3.org/2000/svg">
<path fill-rule="evenodd" clip-rule="evenodd" d="M271.281 71.5407C276.881 71.5407 281.714 72.5366 285.778 74.4993C289.861 76.4773 293.234 79.1435 295.935 82.4966C298.601 85.8662 300.586 89.8069 301.868 94.3186C303.141 98.8469 303.779 103.712 303.779 108.923C303.779 116.92 302.308 124.484 299.331 131.61C296.359 138.745 292.32 144.934 287.185 150.215C282.055 155.49 275.997 159.646 269.011 162.714C262.034 165.793 254.454 167.326 246.312 167.326C245.258 167.326 243.407 167.299 240.793 167.24C238.178 167.188 235.171 166.921 231.805 166.466C228.418 165.999 224.837 165.303 221.052 164.372C217.273 163.458 213.683 162.174 210.301 160.548L240.53 34.1766L267.604 30L256.783 74.8428C259.101 73.8041 261.434 72.9959 263.764 72.4124C266.108 71.8455 268.605 71.5407 271.281 71.5407ZM248.572 145.96C252.65 145.96 256.49 144.964 260.101 143.003C263.721 141.046 266.845 138.396 269.459 135.095C272.074 131.786 274.15 128.051 275.661 123.879C277.171 119.71 277.934 115.361 277.934 110.833C277.934 105.273 277.003 100.934 275.138 97.8C273.274 94.6745 269.83 93.1076 264.826 93.1076C263.186 93.1076 261.072 93.4166 258.452 93.971C255.825 94.5669 253.473 95.7903 251.364 97.6331L239.839 145.261C240.534 145.377 241.15 145.497 241.673 145.604C242.186 145.72 242.752 145.806 243.317 145.866C243.916 145.935 244.599 145.964 245.422 145.964C246.247 145.964 247.291 145.96 248.572 145.96Z" fill="white"/>
<path fill-rule="evenodd" clip-rule="evenodd" d="M331.869 164.901H306.005L327.847 73.4694H353.887L331.869 164.901ZM344.451 62.3384C340.839 62.3384 337.568 61.2653 334.665 59.1274C331.735 56.9991 330.285 53.7191 330.285 49.3012C330.285 46.8722 330.781 44.588 331.766 42.4418C332.761 40.2956 334.069 38.4405 335.705 36.8736C337.339 35.3163 339.229 34.0708 341.378 33.1301C343.539 32.2074 345.84 31.748 348.291 31.748C351.898 31.748 355.156 32.817 358.068 34.9591C360.971 37.1094 362.434 40.3894 362.434 44.7811C362.434 47.2198 361.942 49.5122 360.946 51.6584C359.957 53.8046 358.655 55.6501 357.019 57.2253C355.401 58.7839 353.49 60.0253 351.345 60.9563C349.183 61.8915 346.897 62.3384 344.451 62.3384Z" fill="white"/>
<path fill-rule="evenodd" clip-rule="evenodd" d="M376.543 50.699L403.632 46.5225L396.979 73.4687H425.988L420.749 94.67H391.913L384.233 126.655C383.526 129.321 383.124 131.811 383.012 134.12C382.887 136.447 383.181 138.442 383.879 140.121C384.574 141.804 385.825 143.1 387.637 144.023C389.441 144.956 392.025 145.423 395.408 145.423C398.196 145.423 400.914 145.161 403.542 144.633C406.152 144.122 408.801 143.401 411.481 142.462L413.41 162.289C409.914 163.564 406.131 164.663 402.052 165.586C397.971 166.518 393.134 166.968 387.546 166.968C379.513 166.968 373.283 165.787 368.847 163.423C364.415 161.04 361.283 157.79 359.406 153.674C357.554 149.575 356.731 144.844 356.964 139.517C357.206 134.176 358.012 128.561 359.406 122.651L376.543 50.699Z" fill="white"/>
<path fill-rule="evenodd" clip-rule="evenodd" d="M424.848 128.405C424.848 120.527 426.13 113.105 428.692 106.147C431.247 99.188 434.931 93.1052 439.712 87.8804C444.476 82.6818 450.274 78.5659 457.101 75.548C463.897 72.5383 471.503 71.0225 479.891 71.0225C485.138 71.0225 489.828 71.5121 493.953 72.5038C498.095 73.4997 501.844 74.7921 505.232 76.41L496.313 96.5907C493.983 95.65 491.563 94.8225 489.065 94.0666C486.561 93.3025 483.506 92.9328 479.895 92.9328C471.266 92.9328 464.44 95.8914 459.361 101.789C454.305 107.696 451.754 115.642 451.754 125.614C451.754 131.525 453.036 136.298 455.607 139.956C458.167 143.609 462.891 145.425 469.756 145.425C473.143 145.425 476.41 145.073 479.542 144.387C482.695 143.69 485.479 142.82 487.934 141.781L489.862 162.462C486.592 163.729 482.985 164.871 479.028 165.867C475.063 166.833 470.342 167.327 464.868 167.327C457.644 167.327 451.526 166.279 446.526 164.206C441.52 162.102 437.382 159.308 434.124 155.77C430.85 152.225 428.498 148.082 427.044 143.33C425.585 138.595 424.848 133.607 424.848 128.405Z" fill="white"/>
<path fill-rule="evenodd" clip-rule="evenodd" d="M539.724 167.334C533.549 167.334 528.19 166.402 523.643 164.551C519.108 162.698 515.354 160.1 512.381 156.731C509.408 153.378 507.178 149.402 505.654 144.826C504.127 140.255 503.397 135.185 503.397 129.634C503.397 122.667 504.524 115.705 506.793 108.758C509.054 101.805 512.407 95.5542 516.851 89.9956C521.257 84.4273 526.688 79.877 533.092 76.3266C539.483 72.8066 546.839 71.0342 555.098 71.0342C561.156 71.0342 566.492 71.9694 571.101 73.8204C575.687 75.6742 579.468 78.2894 582.457 81.6411C585.412 85.0107 587.661 88.9694 589.171 93.5542C590.694 98.1169 591.44 103.2 591.44 108.754C591.44 115.7 590.331 122.663 588.131 129.63C585.927 136.558 582.659 142.826 578.345 148.394C574.039 153.953 568.654 158.499 562.186 162.036C555.719 165.565 548.223 167.334 539.724 167.334ZM552.647 92.9404C548.811 92.9404 545.423 94.048 542.52 96.2369C539.607 98.448 537.161 101.229 535.189 104.582C533.196 107.947 531.716 111.63 530.719 115.619C529.731 119.623 529.243 123.405 529.243 127.002C529.243 132.802 530.183 137.318 532.03 140.572C533.908 143.805 537.273 145.431 542.17 145.431C546.019 145.431 549.389 144.333 552.31 142.122C555.205 139.928 557.651 137.147 559.641 133.786C561.621 130.437 563.114 126.746 564.11 122.749C565.09 118.757 565.586 114.953 565.586 111.364C565.586 105.578 564.65 101.054 562.786 97.8039C560.923 94.5625 557.539 92.9404 552.647 92.9404Z" fill="white"/>
<path fill-rule="evenodd" clip-rule="evenodd" d="M619.617 164.901H593.737L615.578 73.4694H641.63L619.617 164.901ZM632.181 62.3384C628.574 62.3384 625.303 61.2653 622.404 59.1274C619.487 56.9991 618.025 53.7191 618.025 49.3012C618.025 46.8722 618.524 44.588 619.513 42.4418C620.501 40.2956 621.812 38.4405 623.448 36.8736C625.074 35.3163 626.982 34.0708 629.126 33.1301C631.275 32.2074 633.575 31.748 636.021 31.748C639.637 31.748 642.903 32.817 645.811 34.9591C648.724 37.1094 650.19 40.3894 650.19 44.7811C650.19 47.2198 649.669 49.5122 648.69 51.6584C647.71 53.8046 646.403 55.6501 644.771 57.2253C643.132 58.7839 641.251 60.0253 639.102 60.9563C636.937 61.8915 634.64 62.3384 632.181 62.3384Z" fill="white"/>
<path fill-rule="evenodd" clip-rule="evenodd" d="M660.252 77.6371C662.217 77.066 664.408 76.3791 666.794 75.6329C669.189 74.8854 671.859 74.1902 674.846 73.564C677.801 72.9198 681.132 72.3998 684.8 71.9888C688.468 71.5764 692.64 71.375 697.287 71.375C710.921 71.375 720.327 75.324 725.519 83.2053C730.701 91.0867 731.601 101.87 728.232 115.534L716.341 164.901H690.309L701.839 116.572C702.538 113.554 703.094 110.636 703.499 107.786C703.915 104.965 703.888 102.476 703.41 100.32C702.956 98.1916 701.869 96.4522 700.19 95.1005C698.481 93.7654 695.902 93.1047 692.403 93.1047C689.032 93.1047 685.603 93.4647 682.098 94.1598L665.146 164.901H639.106L660.252 77.6371Z" fill="white"/>
<path fill-rule="evenodd" clip-rule="evenodd" d="M347.79 219.393L342.716 228.563H337.228C341.094 221.625 344.865 215.237 348.541 209.4C352.217 203.561 355.85 198.049 359.44 192.863H364.359C364.876 195.44 365.35 198.045 365.782 200.667C366.214 203.295 366.637 206.051 367.051 208.936C367.465 211.821 367.862 214.881 368.241 218.109C368.622 221.338 369.018 224.819 369.433 228.567H364.359C364.186 227.022 364.03 225.467 363.892 223.905C363.754 222.342 363.599 220.84 363.426 219.397L347.79 219.393ZM362.96 215.371C362.684 212.593 362.365 209.825 362.003 207.077C361.64 204.329 361.218 201.496 360.734 198.578C359.525 200.329 358.025 202.592 356.229 205.352C354.434 208.12 352.397 211.456 350.12 215.371H362.96Z" fill="white"/>
<path fill-rule="evenodd" clip-rule="evenodd" d="M387.783 229.331C385.539 229.331 383.563 229.004 381.855 228.352C380.146 227.7 378.723 226.773 377.583 225.571C376.444 224.373 375.589 222.918 375.021 221.218C374.451 219.518 374.166 217.603 374.166 215.475C374.166 212.384 374.658 209.431 375.641 206.614C376.625 203.802 378.023 201.312 379.836 199.149C381.647 196.985 383.83 195.26 386.385 193.967C388.939 192.68 391.783 192.036 394.928 192.036C397.621 192.036 399.77 192.311 401.375 192.86C402.979 193.41 404.127 193.924 404.818 194.406L402.746 198.526C401.949 198.011 400.874 197.522 399.51 197.058C398.148 196.599 396.534 196.363 394.669 196.363C392.288 196.363 390.148 196.922 388.25 198.042C386.35 199.158 384.745 200.6 383.434 202.369C382.123 204.137 381.121 206.129 380.43 208.344C379.741 210.559 379.396 212.748 379.396 214.912C379.396 221.609 382.312 224.958 388.146 224.958C389.388 224.958 390.502 224.866 391.486 224.695C392.469 224.527 393.341 224.326 394.099 224.102C394.859 223.879 395.532 223.635 396.119 223.356C396.706 223.082 397.223 222.84 397.673 222.635L398.294 226.962C397.88 227.202 397.337 227.46 396.663 227.734C395.99 228.009 395.204 228.266 394.308 228.512C393.41 228.752 392.408 228.949 391.303 229.104C390.2 229.258 389.026 229.331 387.783 229.331Z" fill="white"/>
<path fill-rule="evenodd" clip-rule="evenodd" d="M416.873 229.331C414.63 229.331 412.654 229.004 410.945 228.352C409.237 227.7 407.812 226.773 406.673 225.571C405.535 224.373 404.68 222.918 404.11 221.218C403.541 219.518 403.257 217.603 403.257 215.475C403.257 212.384 403.748 209.431 404.732 206.614C405.716 203.802 407.113 201.312 408.926 199.149C410.738 196.985 412.921 195.26 415.476 193.967C418.03 192.68 420.873 192.036 424.019 192.036C426.712 192.036 428.861 192.311 430.465 192.86C432.07 193.41 433.218 193.924 433.909 194.406L431.837 198.526C431.039 198.011 429.964 197.522 428.601 197.058C427.237 196.599 425.623 196.363 423.76 196.363C421.378 196.363 419.239 196.922 417.339 198.042C415.441 199.158 413.836 200.6 412.524 202.369C411.212 204.137 410.211 206.129 409.521 208.344C408.83 210.559 408.486 212.748 408.486 214.912C408.486 221.609 411.403 224.958 417.236 224.958C418.479 224.958 419.592 224.866 420.575 224.695C421.56 224.527 422.432 224.326 423.19 224.102C423.95 223.879 424.623 223.635 425.21 223.356C425.797 223.082 426.315 222.84 426.763 222.635L427.385 226.962C426.97 227.202 426.426 227.46 425.753 227.734C425.08 228.009 424.295 228.266 423.397 228.512C422.501 228.752 421.499 228.949 420.395 229.104C419.29 229.258 418.116 229.331 416.873 229.331Z" fill="white"/>
<path fill-rule="evenodd" clip-rule="evenodd" d="M430.777 228.558L439.371 192.86H460.548L459.564 197.033H443.357L440.77 207.8H455.163L454.179 211.869H439.837L436.782 224.386H454.179L453.196 228.558H430.777Z" fill="white"/>
<path fill-rule="evenodd" clip-rule="evenodd" d="M475.537 192.498C479.714 192.498 482.863 193.288 484.986 194.868C487.109 196.448 488.171 198.749 488.171 201.771C488.171 204.106 487.731 206.128 486.851 207.824C485.97 209.524 484.719 210.923 483.097 212.026C481.474 213.126 479.524 213.937 477.246 214.469C474.967 215.001 472.43 215.272 469.634 215.272H466.062L462.851 228.561H457.829L466.321 193.327C467.771 192.984 469.306 192.76 470.928 192.658C472.552 192.55 474.087 192.498 475.537 192.498ZM474.916 196.723C472.465 196.723 470.981 196.792 470.463 196.928L467.045 211.095H470.308C471.757 211.095 473.241 210.97 474.76 210.709C476.279 210.451 477.643 209.996 478.851 209.348C480.059 208.695 481.051 207.793 481.828 206.639C482.604 205.488 482.993 204.007 482.993 202.188C482.993 200.23 482.268 198.83 480.818 197.985C479.368 197.144 477.401 196.723 474.916 196.723Z" fill="white"/>
<path fill-rule="evenodd" clip-rule="evenodd" d="M518.801 192.86L517.817 197.033H506.996L499.385 228.558H494.363L501.974 197.033H491.152L492.135 192.86H518.801Z" fill="white"/>
<path fill-rule="evenodd" clip-rule="evenodd" d="M514.142 228.558L522.737 192.86H543.913L542.93 197.033H526.724L524.135 207.8H538.528L537.545 211.869H523.203L520.148 224.386H537.545L536.561 228.558H514.142Z" fill="white"/>
<path fill-rule="evenodd" clip-rule="evenodd" d="M558.825 192.498C564.141 192.498 568.11 193.744 570.734 196.233C573.357 198.723 574.669 202.08 574.669 206.304C574.669 209.258 574.203 212.099 573.27 214.825C572.339 217.56 570.888 219.968 568.921 222.068C566.954 224.157 564.443 225.828 561.388 227.064C558.332 228.301 554.683 228.919 550.437 228.919C548.988 228.919 547.417 228.85 545.726 228.712C544.034 228.575 542.549 228.334 541.272 227.992L549.608 193.323C551.058 192.979 552.594 192.756 554.217 192.654C555.839 192.55 557.375 192.498 558.825 192.498ZM558.411 196.723C555.822 196.723 554.269 196.792 553.75 196.928L547.123 224.437C547.4 224.505 547.865 224.566 548.521 224.617C549.177 224.669 550.247 224.694 551.731 224.694C554.458 224.694 556.917 224.244 559.109 223.334C561.302 222.424 563.157 221.153 564.676 219.517C566.194 217.886 567.368 215.95 568.196 213.701C569.025 211.451 569.439 208.988 569.439 206.309C569.439 203.287 568.559 200.934 566.799 199.247C565.039 197.568 562.243 196.723 558.411 196.723Z" fill="white"/>
<path fill-rule="evenodd" clip-rule="evenodd" d="M613.346 228.558H608.324L612.31 211.972H595.69L591.703 228.558H586.681L595.276 192.86H600.298L596.675 207.8H613.299L616.923 192.86H621.945L613.346 228.558Z" fill="white"/>
<path fill-rule="evenodd" clip-rule="evenodd" d="M621.268 228.558L629.863 192.86H651.04L650.052 197.033H633.846L631.257 207.8H645.651L644.662 211.869H630.32L627.27 224.386H644.662L643.674 228.558H621.268Z" fill="white"/>
<path fill-rule="evenodd" clip-rule="evenodd" d="M666.03 192.498C669.862 192.498 672.899 193.272 675.142 194.817C677.386 196.362 678.503 198.629 678.503 201.613C678.503 204.635 677.619 207.171 675.841 209.215C674.063 211.258 671.57 212.726 668.36 213.615C668.774 214.341 669.258 215.259 669.81 216.375C670.361 217.491 670.931 218.727 671.519 220.084C672.101 221.436 672.674 222.848 673.228 224.304C673.779 225.767 674.258 227.179 674.677 228.553H669.55C669.072 227.248 668.567 225.927 668.05 224.588C667.535 223.247 667.005 221.96 666.474 220.723C665.935 219.487 665.404 218.328 664.865 217.247C664.334 216.164 663.839 215.207 663.389 214.388C662.941 214.422 662.492 214.447 662.043 214.465C661.594 214.481 661.15 214.491 660.697 214.491H656.71L653.345 228.553H648.323L656.818 193.319C658.268 192.975 659.8 192.752 661.426 192.648C663.044 192.55 664.581 192.498 666.03 192.498ZM665.408 196.723C662.957 196.723 661.473 196.792 660.952 196.928L657.69 210.429H660.749C662.164 210.429 663.614 210.327 665.098 210.12C666.582 209.915 667.937 209.51 669.159 208.91C670.383 208.309 671.385 207.468 672.161 206.386C672.938 205.304 673.331 203.87 673.331 202.084C673.331 200.161 672.597 198.788 671.13 197.963C669.663 197.135 667.752 196.723 665.408 196.723Z" fill="white"/>
<path fill-rule="evenodd" clip-rule="evenodd" d="M678.888 228.558L687.483 192.86H708.659L707.672 197.033H691.465L688.876 207.8H703.27L702.283 211.869H687.941L684.89 224.386H702.283L701.294 228.558H678.888Z" fill="white"/>
<path fill-rule="evenodd" clip-rule="evenodd" d="M138.011 167.327C176.124 167.327 207.021 136.587 207.021 98.6687C207.021 60.75 176.124 30.0107 138.011 30.0107C99.897 30.0107 69 60.75 69 98.6687C69 136.587 99.897 167.327 138.011 167.327ZM168.439 88.8811C169.81 79.7418 162.817 74.8301 153.254 71.5514L156.357 59.1666L148.785 57.2866L145.764 69.3445C143.775 68.8507 141.73 68.3832 139.694 67.9238L142.735 55.7887L135.167 53.9073L132.06 66.288C130.412 65.9142 128.794 65.5459 127.223 65.1542L127.232 65.1156L116.786 62.5239L114.771 70.5721C114.771 70.5721 120.389 71.8521 120.272 71.9335C123.34 72.6976 123.897 74.7142 123.802 76.3156L120.268 90.4176C120.479 90.4687 120.751 90.5418 121.058 90.6714C120.803 90.6025 120.536 90.5376 120.255 90.4687L115.302 110.233C114.926 111.156 113.973 112.547 111.828 112.019C111.906 112.127 106.323 110.653 106.323 110.653L102.56 119.282L112.415 121.725C114.249 122.18 116.048 122.66 117.813 123.111L114.68 135.633L122.244 137.513L125.351 125.125C127.418 125.678 129.424 126.198 131.387 126.682L128.294 139.012L135.866 140.892L139.003 128.396C151.921 130.826 161.633 129.847 165.72 118.222C169.017 108.859 165.556 103.463 158.76 99.9432C163.713 98.8094 167.441 95.5735 168.439 88.8811ZM151.131 113.027C148.789 122.386 132.954 117.325 127.819 116.054L131.978 99.4673C137.113 100.742 153.578 103.266 151.131 113.027ZM153.474 88.7473C151.339 97.2563 138.157 92.9335 133.881 91.877L137.652 76.8273C141.928 77.8921 155.697 79.8701 153.474 88.7473Z" fill="white"/>
</svg>
