<svg width="771" height="291" viewBox="0 0 771 291" fill="none" xmlns="http://www.w3.org/2000/svg">
<path d="M110.922 196.855V243.217L167.683 163.059L110.922 196.855Z" fill="white"/>
<path d="M110.922 57.7695L167.683 152.227L110.922 186.023L53.7279 152.227" fill="#E3E3E3"/>
<path d="M110.922 57.7695V126.229L53.7279 152.227M53.7279 163.059L110.922 196.856V243.218" fill="#8C8C8C"/>
<path d="M110.922 126.229V186.023L167.683 152.227" fill="white"/>
<path d="M53.7279 152.227L110.922 126.229V186.023" fill="#C6C6C6"/>
<path d="M265.791 175.784V181.195H224.157V119.224H265.006V124.636H230.267V146.98H260.554V152.13H230.267V175.784H265.791ZM321.336 124.636H299.253V181.195H293.144V124.636H271.061V119.224H321.336V124.636ZM379.497 119.224V181.195H373.475V152.217H336.729V181.195H330.619V119.224H336.729V146.806H373.475V119.224H379.497ZM436.692 175.784V181.195H395.058V119.224H435.907V124.636H401.168V146.98H431.455V152.13H401.168V175.784H436.692ZM448.246 181.195V119.224H474.431C477.108 119.224 479.552 119.777 481.763 120.883C483.974 121.988 485.894 123.501 487.524 125.421C489.211 127.283 490.491 129.378 491.364 131.706C492.295 133.975 492.761 136.303 492.761 138.688C492.761 141.656 492.179 144.449 491.015 147.068C489.909 149.686 488.309 151.897 486.214 153.701C484.178 155.505 481.763 156.698 478.97 157.28L494.157 181.195H487.262L472.686 158.327H454.356V181.195H448.246ZM454.356 152.916H474.606C477.05 152.916 479.174 152.246 480.977 150.908C482.781 149.57 484.178 147.824 485.167 145.671C486.156 143.46 486.651 141.132 486.651 138.688C486.651 136.186 486.069 133.888 484.905 131.793C483.8 129.64 482.287 127.924 480.366 126.643C478.504 125.305 476.41 124.636 474.082 124.636H454.356V152.916ZM546.904 175.784V181.195H505.27V119.224H546.119V124.636H511.38V146.98H541.667V152.13H511.38V175.784H546.904ZM583.683 181.632C578.795 181.632 574.664 180.759 571.289 179.013C567.914 177.268 565.237 174.94 563.259 172.031C561.28 169.063 559.826 165.717 558.895 161.993C558.022 158.269 557.585 154.429 557.585 150.472V119.224H563.608V150.472C563.608 153.672 563.928 156.814 564.568 159.898C565.266 162.982 566.372 165.746 567.885 168.19C569.398 170.634 571.434 172.583 573.995 174.038C576.555 175.435 579.755 176.133 583.596 176.133C587.552 176.133 590.811 175.406 593.371 173.951C595.99 172.438 598.026 170.46 599.481 168.016C600.994 165.572 602.071 162.837 602.711 159.811C603.351 156.727 603.671 153.614 603.671 150.472V119.224H609.781V150.472C609.781 154.603 609.315 158.56 608.384 162.342C607.453 166.124 605.94 169.441 603.845 172.292C601.809 175.144 599.132 177.413 595.815 179.101C592.499 180.788 588.454 181.632 583.683 181.632ZM679.248 181.195V130.746L656.816 169.936H652.975L630.456 130.746V181.195H624.347V119.224H630.631L654.808 161.644L679.16 119.224H685.357V181.195H679.248Z" fill="white"/>
</svg>
