<svg width="683" height="165" viewBox="0 0 683 165" fill="none" xmlns="http://www.w3.org/2000/svg">
<g clip-path="url(#clip0_49_89)">
<g clip-path="url(#clip1_49_89)">
<path d="M65.8498 14.4395C52.826 14.4395 40.0946 18.3015 29.2656 25.5371C18.4367 32.7728 9.99656 43.0571 5.01255 55.0896C0.0285318 67.1221 -1.27551 80.3623 1.26531 93.1359C3.80614 105.909 10.0777 117.643 19.287 126.852C28.4962 136.061 40.2296 142.333 53.0032 144.874C65.7768 147.415 79.017 146.11 91.0494 141.126C103.082 136.142 113.366 127.702 120.602 116.873C127.838 106.044 131.7 93.3131 131.7 80.2892C131.7 62.8248 124.762 46.0756 112.413 33.7264C100.063 21.3772 83.3143 14.4395 65.8498 14.4395ZM64.4121 34.6224H78.5917C78.8818 34.6228 79.1678 34.6902 79.4276 34.8193C79.6873 34.9485 79.9136 35.1359 80.0889 35.367C80.2642 35.5981 80.3837 35.8666 80.4382 36.1515C80.4926 36.4364 80.4804 36.73 80.4026 37.0095L69.263 74.9719L79.7167 71.7781L77.4778 79.3783L66.9199 82.4513L60.0715 105.576H96.7059C96.9963 105.577 97.2823 105.646 97.5417 105.776C97.8011 105.907 98.0267 106.096 98.201 106.328C98.3753 106.56 98.4935 106.829 98.5464 107.115C98.5993 107.4 98.5854 107.694 98.5058 107.974L95.3121 118.949C95.1592 119.471 94.8413 119.929 94.4061 120.256C93.9709 120.582 93.4417 120.759 92.8976 120.759H36.9472L46.4022 88.8113L35.943 91.994L38.2478 84.5256L48.7289 81.3428L62.0195 36.4552C62.1653 35.9303 62.4783 35.4674 62.9111 35.1366C63.3439 34.8058 63.8728 34.6252 64.4176 34.6224H64.4121Z" fill="white"/>
</g>
<path d="M181.797 26.0911H191.522V113.622C191.522 117.341 192.19 119.772 193.525 120.916C194.859 122.061 196.48 122.633 198.387 122.633C200.104 122.633 201.82 122.442 203.536 122.061C205.253 121.679 206.731 121.298 207.97 120.916L209.686 128.783C207.875 129.546 205.634 130.165 202.964 130.642C200.39 131.119 198.149 131.357 196.242 131.357C191.856 131.357 188.328 130.07 185.658 127.496C183.084 124.921 181.797 121.393 181.797 116.912V26.0911ZM220.336 130.499V55.9832H230.062V130.499H220.336ZM220.336 40.3935V26.0911H230.062V40.3935H220.336ZM287.239 126.923C286.476 127.209 285.285 127.734 283.664 128.497C282.043 129.259 280.088 129.927 277.8 130.499C275.511 131.071 273.032 131.357 270.362 131.357C267.597 131.357 264.975 130.833 262.496 129.784C260.112 128.735 258.205 127.162 256.775 125.064C255.345 122.871 254.63 120.201 254.63 117.055V63.7065H244.332V55.9832H254.63V30.8109H264.355V55.9832H281.518V63.7065H264.355V114.337C264.546 117.007 265.499 119.009 267.216 120.344C269.027 121.679 271.077 122.347 273.366 122.347C276.036 122.347 278.467 121.918 280.66 121.059C282.853 120.106 284.188 119.438 284.665 119.057L287.239 126.923ZM330.314 131.929C324.975 131.929 320.016 130.928 315.44 128.926C310.863 126.828 306.906 124.015 303.569 120.487C300.231 116.864 297.609 112.716 295.702 108.044C293.891 103.372 292.985 98.3662 292.985 93.0266C292.985 86.066 294.558 79.6776 297.705 73.8613C300.946 68.0449 305.38 63.4205 311.006 59.9879C316.632 56.4599 323.02 54.696 330.171 54.696C337.513 54.696 343.902 56.4599 349.336 59.9879C354.867 63.5158 359.205 68.188 362.352 74.0043C365.498 79.7253 367.072 86.0184 367.072 92.8835C367.072 93.6463 367.072 94.4091 367.072 95.1719C367.072 95.8394 367.024 96.3638 366.929 96.7452H303.14C303.616 102.085 305.094 106.852 307.573 111.048C310.148 115.148 313.437 118.437 317.442 120.916C321.542 123.3 325.976 124.492 330.743 124.492C335.606 124.492 340.183 123.252 344.474 120.773C348.86 118.294 351.911 115.052 353.627 111.048L362.066 113.336C360.54 116.864 358.204 120.058 355.057 122.919C351.911 125.779 348.192 128.02 343.902 129.641C339.706 131.166 335.177 131.929 330.314 131.929ZM302.853 89.737H357.918C357.537 84.3021 356.059 79.5346 353.484 75.4345C351.005 71.3345 347.716 68.1403 343.615 65.8519C339.611 63.4682 335.177 62.2763 330.314 62.2763C325.451 62.2763 321.018 63.4682 317.013 65.8519C313.008 68.1403 309.719 71.3822 307.144 75.5776C304.665 79.6776 303.235 84.3974 302.853 89.737ZM414.4 131.929C408.965 131.929 403.96 130.928 399.383 128.926C394.901 126.828 390.944 123.968 387.512 120.344C384.175 116.721 381.552 112.573 379.645 107.901C377.834 103.229 376.928 98.2708 376.928 93.0266C376.928 85.9707 378.501 79.5346 381.648 73.7183C384.794 67.9019 389.18 63.2775 394.806 59.8449C400.432 56.4123 406.915 54.696 414.257 54.696C421.218 54.696 427.368 56.3169 432.708 59.5588C438.047 62.7054 442.004 66.9961 444.579 72.431L435.139 75.4345C433.041 71.6206 430.085 68.6647 426.271 66.567C422.553 64.374 418.405 63.2775 413.828 63.2775C408.87 63.2775 404.341 64.5647 400.241 67.1391C396.141 69.7136 392.851 73.2415 390.372 77.7229C387.988 82.2044 386.797 87.3056 386.797 93.0266C386.797 98.6522 388.036 103.753 390.515 108.33C392.994 112.907 396.284 116.578 400.384 119.343C404.484 122.013 409.013 123.348 413.971 123.348C417.213 123.348 420.312 122.776 423.268 121.631C426.319 120.487 428.941 118.962 431.134 117.055C433.423 115.052 434.948 112.907 435.711 110.619L445.294 113.479C443.959 117.007 441.718 120.201 438.572 123.062C435.52 125.827 431.897 128.02 427.702 129.641C423.602 131.166 419.168 131.929 414.4 131.929ZM491.626 131.929C486.286 131.929 481.328 130.928 476.751 128.926C472.27 126.828 468.36 124.015 465.023 120.487C461.781 116.864 459.255 112.764 457.443 108.187C455.631 103.515 454.725 98.6045 454.725 93.4556C454.725 88.1161 455.631 83.1579 457.443 78.5811C459.255 73.9089 461.829 69.8089 465.166 66.281C468.504 62.6577 472.413 59.8449 476.894 57.8425C481.471 55.7448 486.429 54.696 491.769 54.696C497.108 54.696 502.019 55.7448 506.5 57.8425C510.982 59.8449 514.891 62.6577 518.228 66.281C521.566 69.8089 524.14 73.9089 525.952 78.5811C527.763 83.1579 528.669 88.1161 528.669 93.4556C528.669 98.6045 527.763 103.515 525.952 108.187C524.14 112.764 521.566 116.864 518.228 120.487C514.987 124.015 511.077 126.828 506.5 128.926C502.019 130.928 497.061 131.929 491.626 131.929ZM464.594 93.5987C464.594 99.129 465.786 104.182 468.17 108.759C470.649 113.241 473.938 116.816 478.038 119.486C482.139 122.061 486.668 123.348 491.626 123.348C496.584 123.348 501.113 122.013 505.213 119.343C509.313 116.673 512.603 113.05 515.082 108.473C517.561 103.801 518.801 98.7476 518.801 93.3126C518.801 87.7823 517.561 82.7288 515.082 78.152C512.603 73.5752 509.313 69.9519 505.213 67.2821C501.113 64.6123 496.584 63.2775 491.626 63.2775C486.668 63.2775 482.139 64.66 478.038 67.4252C474.034 70.1903 470.792 73.8613 468.313 78.4381C465.834 82.9195 464.594 87.973 464.594 93.5987ZM544.935 130.499V55.9832H554.661V130.499H544.935ZM544.935 40.3935V26.0911H554.661V40.3935H544.935ZM638.727 130.499H629.001V88.8789C629.001 80.1067 627.714 73.7183 625.139 69.7136C622.565 65.6135 618.513 63.5635 612.982 63.5635C609.168 63.5635 605.402 64.517 601.683 66.424C597.965 68.2356 594.675 70.7624 591.815 74.0043C589.049 77.1508 587.047 80.7741 585.808 84.8742V130.499H576.082V55.9832H584.949V72.8601C586.952 69.2368 589.574 66.0903 592.816 63.4205C596.058 60.6553 599.729 58.51 603.829 56.9844C607.929 55.4588 612.172 54.696 616.558 54.696C620.658 54.696 624.138 55.4588 626.999 56.9844C629.859 58.51 632.148 60.703 633.864 63.5635C635.58 66.3286 636.82 69.7136 637.582 73.7183C638.345 77.6276 638.727 82.0137 638.727 86.8765V130.499Z" fill="white"/>
</g>
<defs>
<clipPath id="clip0_49_89">
<rect width="683" height="164.515" fill="white"/>
</clipPath>
<clipPath id="clip1_49_89">
<rect width="131.7" height="131.7" fill="white" transform="translate(0 14.4395)"/>
</clipPath>
</defs>
</svg>
