<svg width="437" height="118" viewBox="0 0 437 118" fill="none" xmlns="http://www.w3.org/2000/svg">
<g clip-path="url(#clip0_43_102)">
<rect width="436.925" height="118" fill="white"/>
<path d="M177.325 69.9341C177.325 77.9451 171.479 82.4919 159.571 82.4919H137.919V35.2919H158.272C168.881 35.2919 174.943 39.8387 174.943 47.4166C174.943 52.8295 172.129 56.2937 167.798 58.2423C173.644 59.5414 177.325 63.6552 177.325 69.9341ZM142.899 39.4056V56.5102H157.839C165.417 56.5102 169.747 53.6955 169.747 47.8497C169.747 42.0038 165.417 39.1891 157.839 39.1891H142.899V39.4056ZM172.345 69.501C172.345 63.4387 167.798 60.624 159.571 60.624H142.899V78.3781H159.571C167.798 78.3781 172.345 75.7799 172.345 69.501ZM218.246 78.1616V82.4919H184.903V35.2919H217.163V39.6221H189.883V56.5102H214.349V60.8405H189.883V78.3781H218.246V78.1616ZM239.248 39.6221H222.576V35.2919H260.683V39.6221H244.011V82.4919H239.031V39.6221H239.248ZM308.316 82.4919L308.099 57.3763L295.974 77.7286H290.129L278.004 58.0258V82.2754H265.663V35.2919H276.705L293.376 62.5726L309.615 35.2919H320.657L320.874 82.4919H308.316ZM361.578 58.0258H373.27V77.5121C367.857 81.4093 360.279 83.5744 353.351 83.5744C338.411 83.5744 327.369 73.3983 327.369 59.1084C327.369 44.8185 338.411 34.6423 353.567 34.6423C362.444 34.6423 369.589 37.6735 374.136 43.3029L365.692 50.8809C362.444 47.4166 358.764 45.6845 354.217 45.6845C346.206 45.6845 340.793 51.0974 340.793 59.1084C340.793 67.1194 346.206 72.5322 354.217 72.5322C356.815 72.5322 358.98 72.0992 361.362 71.0166V58.0258H361.578ZM424.584 82.4919L424.367 57.5928L412.242 77.9451H406.397L394.272 58.2423V82.4919H381.93V35.2919H392.973L409.644 62.5726L425.883 35.2919H436.925L437.141 82.4919H424.584Z" fill="black"/>
<path d="M6.06234 48.4989C6.06234 58.8916 7.79445 68.6347 12.9908 76.6457V69.7173C12.9908 61.0567 19.9192 54.9943 27.0642 51.0971C19.7027 53.4787 11.6917 51.7466 6.06234 48.4989ZM12.1247 41.1374H9.74308C9.31005 39.8384 12.9908 37.4567 14.0734 39.1888L12.1247 41.1374ZM4.76326 40.0549C6.71188 41.354 9.52656 42.0035 12.3412 41.787C14.7229 43.5191 17.9706 38.7558 21.4348 38.7558C26.4146 38.1063 32.6935 37.4567 36.1578 41.787L34.4256 38.5393C29.6623 38.1063 25.7651 36.5907 22.0844 34.4255C14.7229 31.1778 11.0422 41.787 4.76326 40.0549ZM0.432983 22.9503C2.81463 23.5998 5.19629 24.2494 7.36142 24.2494C12.3412 22.3008 13.6403 18.187 11.6917 12.9907C8.66051 8.66039 4.76326 6.27873 0.432983 5.41268V22.9503ZM33.7761 118C34.4256 117.35 35.5082 116.268 36.1578 115.402C49.5816 98.0806 23.3834 87.9044 24.033 71.2329C24.6825 64.5209 28.3633 59.5411 32.6935 54.1283L32.477 53.6952C28.3633 57.809 26.8477 60.4072 24.033 64.3044C16.022 80.7595 27.2807 103.493 15.5889 117.35L33.7761 118ZM87.9045 59.1081C87.9045 83.1411 76.6458 104.143 58.8917 118H117.783V0.432861H58.8917C76.4293 13.6402 87.9045 35.0751 87.9045 59.1081Z" fill="#C0A971"/>
<path d="M0.433028 118H10.3927L12.7743 115.618C26.4147 96.9982 10.1761 83.7908 0 69.0679L0.433028 118ZM28.1468 0.433028H0.433028V2.38165C3.03119 2.81468 6.06239 3.68073 8.44404 4.7633C14.0734 8.01101 18.4037 13.4239 17.7541 20.1358L30.0954 18.8367C31.8275 14.7229 32.4771 8.44404 30.745 5.19633C30.0954 3.03119 29.0128 1.29908 28.1468 0.433028ZM33.7761 0.433028C36.3743 4.11376 36.3743 8.66055 36.8073 12.3413C41.7872 8.66055 47.8495 6.2789 54.1284 8.01101C49.7982 4.7633 46.767 1.94862 41.3541 0L33.7761 0.433028ZM58.4587 60.1908L57.3761 62.789L56.0771 59.5413C53.0459 60.1908 50.0147 61.2734 48.4991 64.5211C48.0661 65.6037 48.9321 67.1193 47.8495 67.7688C45.9009 67.3358 46.767 64.0881 46.767 62.1394C49.1486 59.7578 55.4275 54.778 57.8092 56.7266C58.4587 57.1596 58.8917 58.8917 58.4587 60.1908ZM45.0349 84.2239C43.3027 82.9248 43.9523 80.5431 43.9523 78.811L45.0349 77.7284C46.767 83.1413 51.0972 76.6459 54.345 77.2954C56.0771 76.6459 55.4275 74.2642 56.9431 74.6972C59.7578 83.1413 49.7982 81.6257 45.0349 84.2239ZM69.0679 85.3064C70.367 74.2642 69.5009 62.5725 61.4899 54.9945C59.7578 54.5615 57.3761 55.644 56.0771 53.9119C52.3963 57.1596 47.633 58.6752 44.3853 62.356C40.7046 63.4385 37.0239 61.0569 33.3431 60.4073V59.1083C28.3633 62.356 29.6624 69.0679 28.5798 74.0477C29.8789 79.6771 36.1578 82.0587 40.2716 85.3064C46.5505 86.389 52.3963 83.5743 57.5927 81.6257C58.6752 82.7083 59.9743 83.3578 59.3248 84.6569C54.9945 90.7193 48.7156 93.3174 41.3541 92.6679C45.6844 101.112 42.6532 110.639 38.1064 118H42.4367C55.8605 111.938 68.2018 102.628 69.0679 85.3064Z" fill="#C0A971"/>
<path d="M78.811 40.0549C75.1303 27.2806 63.8716 10.3925 48.7156 11.2586C43.0862 11.6916 37.4569 16.0219 35.2917 19.2696C39.4055 21.6512 43.7358 24.8989 47.4165 28.3632C46.9835 29.6622 48.0661 31.3944 46.334 32.0439C44.3853 30.3118 42.6532 26.4145 40.0551 27.7136C42.0037 32.0439 47.4165 32.4769 51.3138 33.343C53.0459 35.0751 52.3963 37.6732 55.644 36.3742C57.3762 36.8072 58.0257 38.7558 58.2422 40.0549C55.644 45.0347 48.2826 41.787 44.1688 42.6531C47.4165 43.9522 51.0973 44.3852 54.1284 46.3338C57.1596 48.2824 58.2422 43.7356 59.5413 42.0035C64.9541 43.3026 61.9229 48.932 64.3046 51.9632C75.5633 63.6549 73.3982 84.4402 67.5523 97.6476C83.5743 84.2237 82.2752 52.8292 78.811 40.0549Z" fill="#C0A971"/>
</g>
<defs>
<clipPath id="clip0_43_102">
<rect width="436.925" height="118" fill="white"/>
</clipPath>
</defs>
</svg>
