<svg width="222" height="124" viewBox="0 0 242 206" fill="none" xmlns="http://www.w3.org/2000/svg">
<path fill-rule="evenodd" clip-rule="evenodd" d="M74.4565 166.05V174.65V183.25H70.6872V181.161C69.4918 182.71 67.6779 183.682 65.2124 183.682C60.3512 183.682 56.5406 179.905 56.5406 174.65C56.5406 169.398 60.3512 165.617 65.2124 165.617C67.6779 165.617 69.4918 166.589 70.6872 168.138V166.05H74.4565ZM65.6811 169.143C62.4184 169.143 60.4217 171.627 60.4217 174.65C60.4217 177.673 62.4184 180.156 65.6811 180.156C68.7988 180.156 70.9033 177.78 70.9033 174.65C70.9033 171.52 68.7988 169.143 65.6811 169.143ZM201.831 174.65C201.831 171.627 203.827 169.143 207.09 169.143C210.212 169.143 212.312 171.52 212.312 174.65C212.312 177.78 210.212 180.156 207.09 180.156C203.827 180.156 201.831 177.673 201.831 174.65ZM215.87 159.143V174.65V183.25H212.097V181.161C210.901 182.71 209.087 183.682 206.621 183.682C201.76 183.682 197.949 179.905 197.949 174.65C197.949 169.398 201.76 165.617 206.621 165.617C209.087 165.617 210.901 166.589 212.097 168.138V159.143H215.87ZM121.245 168.966C123.673 168.966 125.233 170.477 125.632 173.138H116.637C117.039 170.655 118.558 168.966 121.245 168.966ZM112.685 174.65C112.685 169.287 116.238 165.617 121.319 165.617C126.176 165.617 129.513 169.287 129.551 174.65C129.551 175.152 129.513 175.622 129.476 176.087H116.604C117.147 179.185 119.36 180.301 121.788 180.301C123.527 180.301 125.379 179.65 126.832 178.501L128.679 181.273C126.574 183.035 124.184 183.682 121.572 183.682C116.383 183.682 112.685 180.12 112.685 174.65ZM166.833 174.65C166.833 171.627 168.829 169.143 172.092 169.143C175.209 169.143 177.314 171.52 177.314 174.65C177.314 177.78 175.209 180.156 172.092 180.156C168.829 180.156 166.833 177.673 166.833 174.65ZM180.867 166.05V174.65V183.25H177.098V181.161C175.899 182.71 174.089 183.682 171.623 183.682C166.761 183.682 162.951 179.905 162.951 174.65C162.951 169.398 166.761 165.617 171.623 165.617C174.089 165.617 175.899 166.589 177.098 168.138V166.05H180.867ZM145.545 174.65C145.545 179.868 149.207 183.682 154.794 183.682C157.405 183.682 159.144 183.106 161.029 181.631L159.219 178.608C157.804 179.617 156.317 180.156 154.682 180.156C151.672 180.12 149.46 177.961 149.46 174.65C149.46 171.339 151.672 169.18 154.682 169.143C156.317 169.143 157.804 169.682 159.219 170.692L161.029 167.668C159.144 166.194 157.405 165.617 154.794 165.617C149.207 165.617 145.545 169.431 145.545 174.65ZM189.572 168.138C190.552 166.626 191.967 165.617 194.143 165.617C194.906 165.617 195.994 165.762 196.829 166.087L195.666 169.613C194.869 169.287 194.072 169.18 193.308 169.18C190.842 169.18 189.61 170.761 189.61 173.608V183.25H185.836V166.05H189.572V168.138ZM93.0998 167.417C91.2853 166.231 88.7866 165.617 86.03 165.617C81.6382 165.617 78.8111 167.705 78.8111 171.124C78.8111 173.929 80.9161 175.659 84.7931 176.198L86.5738 176.449C88.641 176.738 89.617 177.277 89.617 178.249C89.617 179.58 88.2387 180.338 85.6649 180.338C83.0538 180.338 81.1694 179.51 79.8988 178.538L78.1222 181.45C80.1894 182.961 82.8005 183.682 85.6276 183.682C90.6337 183.682 93.5354 181.343 93.5354 178.068C93.5354 175.045 91.2521 173.463 87.4788 172.924L85.7021 172.668C84.0711 172.454 82.7632 172.133 82.7632 170.98C82.7632 169.72 83.9959 168.966 86.0631 168.966C88.2759 168.966 90.4177 169.794 91.4682 170.441L93.0998 167.417ZM137.168 168.138C138.144 166.626 139.559 165.617 141.734 165.617C142.498 165.617 143.586 165.762 144.42 166.087L143.258 169.613C142.461 169.287 141.664 169.18 140.9 169.18C138.434 169.18 137.202 170.761 137.202 173.608V183.25H133.432V166.05H137.168V168.138ZM109.567 166.05H103.403V160.831H99.592V166.05H96.076V169.468H99.592V177.315C99.592 181.306 101.153 183.682 105.611 183.682C107.246 183.682 109.131 183.18 110.327 182.352L109.239 179.147C108.114 179.794 106.881 180.12 105.902 180.12C104.017 180.12 103.403 178.966 103.403 177.24V169.468H109.567V166.05ZM53.2069 172.454V183.25H49.3962V173.678C49.3962 170.761 48.1635 169.143 45.5897 169.143C43.0863 169.143 41.3469 170.729 41.3469 173.715V183.25H37.5363V173.678C37.5363 170.761 36.2704 169.143 33.767 169.143C31.1891 169.143 29.5208 170.729 29.5208 173.715V183.25H25.7142V166.05H29.4876V168.171C30.9032 166.157 32.713 165.617 34.5642 165.617C37.2125 165.617 39.0975 166.771 40.293 168.677C41.8908 166.264 44.1741 165.58 46.3868 165.617C50.5958 165.655 53.2069 168.389 53.2069 172.454Z" fill="white"/>
<path d="M148.978 136.824H91.8502V34.959H148.978V136.824Z" fill="#CECECE"/>
<path d="M95.4745 85.8923C95.4745 65.2284 105.225 46.8216 120.41 34.9598C109.306 26.2857 95.2916 21.1084 80.0613 21.1084C44.0046 21.1084 14.7761 50.1128 14.7761 85.8923C14.7761 121.672 44.0046 150.676 80.0613 150.676C95.2916 150.676 109.306 145.499 120.41 136.825C105.225 124.963 95.4745 106.556 95.4745 85.8923Z" fill="white"/>
<path d="M226.049 85.8923C226.049 121.672 196.82 150.676 160.764 150.676C145.533 150.676 131.519 145.499 120.41 136.825C135.599 124.963 145.351 106.556 145.351 85.8923C145.351 65.2284 135.599 46.8216 120.41 34.9598C131.519 26.2857 145.533 21.1084 160.764 21.1084C196.82 21.1084 226.049 50.1128 226.049 85.8923Z" fill="#D6D6D6"/>
</svg>
