<svg width="649" height="223" viewBox="0 0 649 223" fill="none" xmlns="http://www.w3.org/2000/svg">
<path d="M93.5 120.501C119.457 120.501 140.5 115.24 140.5 108.751C140.5 102.262 119.457 97.001 93.5 97.001C67.5426 97.001 46.5 102.262 46.5 108.751C46.5 115.24 67.5426 120.501 93.5 120.501Z" stroke="white" stroke-width="11.75" stroke-linecap="round" stroke-linejoin="round"/>
<path d="M93.5 173.375V67.625M46.5 67.625H140.5" stroke="white" stroke-width="11.75" stroke-linecap="round" stroke-linejoin="round"/>
<path d="M246.634 167.138C245.013 167.806 243.059 168.569 240.77 169.427C238.482 170.285 236.003 170.952 233.333 171.429C230.759 172.001 228.136 172.287 225.467 172.287C221.939 172.287 218.697 171.667 215.741 170.428C212.785 169.188 210.401 167.234 208.59 164.564C206.873 161.799 206.015 158.223 206.015 153.837V110.787H196.147V96.0551H206.015V71.7409H225.181V96.0551H240.913V110.787H225.181V147.401C225.276 149.975 225.991 151.835 227.326 152.979C228.661 154.123 230.329 154.695 232.332 154.695C234.334 154.695 236.289 154.361 238.196 153.694C240.103 153.027 241.628 152.454 242.773 151.978L246.634 167.138ZM290.533 172.43C284.526 172.43 279.091 171.429 274.228 169.427C269.365 167.329 265.217 164.516 261.785 160.988C258.352 157.365 255.682 153.265 253.775 148.688C251.964 144.016 251.058 139.106 251.058 133.957C251.058 126.805 252.631 120.274 255.778 114.362C259.02 108.451 263.596 103.731 269.508 100.203C275.515 96.5795 282.571 94.7679 290.676 94.7679C298.876 94.7679 305.884 96.5795 311.7 100.203C317.517 103.731 321.95 108.451 325.002 114.362C328.148 120.179 329.721 126.472 329.721 133.242C329.721 134.386 329.674 135.578 329.578 136.817C329.483 137.961 329.388 138.915 329.292 139.678H271.367C271.749 143.492 272.845 146.829 274.657 149.689C276.564 152.55 278.948 154.743 281.808 156.268C284.764 157.699 287.911 158.414 291.248 158.414C295.062 158.414 298.637 157.508 301.975 155.696C305.407 153.789 307.743 151.31 308.983 148.259L325.431 152.836C323.619 156.65 320.997 160.035 317.564 162.991C314.227 165.946 310.27 168.283 305.693 169.999C301.117 171.62 296.063 172.43 290.533 172.43ZM270.938 127.521H310.127C309.746 123.707 308.649 120.417 306.838 117.652C305.121 114.791 302.833 112.598 299.972 111.073C297.112 109.452 293.918 108.641 290.39 108.641C286.957 108.641 283.811 109.452 280.95 111.073C278.185 112.598 275.897 114.791 274.085 117.652C272.369 120.417 271.32 123.707 270.938 127.521ZM385.608 167.138C383.987 167.806 382.033 168.569 379.744 169.427C377.456 170.285 374.977 170.952 372.307 171.429C369.733 172.001 367.11 172.287 364.441 172.287C360.913 172.287 357.671 171.667 354.715 170.428C351.759 169.188 349.375 167.234 347.564 164.564C345.847 161.799 344.989 158.223 344.989 153.837V110.787H335.121V96.0551H344.989V71.7409H364.155V96.0551H379.887V110.787H364.155V147.401C364.25 149.975 364.965 151.835 366.3 152.979C367.635 154.123 369.304 154.695 371.306 154.695C373.308 154.695 375.263 154.361 377.17 153.694C379.077 153.027 380.602 152.454 381.747 151.978L385.608 167.138ZM465.243 171H446.078V128.951C446.078 123.134 444.933 118.796 442.645 115.936C440.452 113.075 437.401 111.645 433.491 111.645C431.203 111.645 428.772 112.312 426.197 113.647C423.623 114.982 421.287 116.841 419.189 119.225C417.187 121.513 415.709 124.183 414.755 127.234V171H395.59V66.592H414.755V109.928C417.52 105.161 421.287 101.442 426.054 98.7726C430.822 96.1028 436.018 94.7679 441.644 94.7679C446.507 94.7679 450.464 95.626 453.515 97.3423C456.566 98.9633 458.95 101.204 460.666 104.064C462.382 106.83 463.574 109.976 464.242 113.504C464.909 116.937 465.243 120.512 465.243 124.231V171ZM516.662 172.43C510.655 172.43 505.22 171.429 500.358 169.427C495.495 167.329 491.347 164.516 487.915 160.988C484.482 157.365 481.812 153.265 479.905 148.688C478.093 144.016 477.188 139.106 477.188 133.957C477.188 126.805 478.761 120.274 481.907 114.362C485.149 108.451 489.726 103.731 495.638 100.203C501.645 96.5795 508.701 94.7679 516.805 94.7679C525.006 94.7679 532.014 96.5795 537.83 100.203C543.646 103.731 548.08 108.451 551.131 114.362C554.278 120.179 555.851 126.472 555.851 133.242C555.851 134.386 555.804 135.578 555.708 136.817C555.613 137.961 555.517 138.915 555.422 139.678H497.497C497.879 143.492 498.975 146.829 500.787 149.689C502.694 152.55 505.077 154.743 507.938 156.268C510.894 157.699 514.04 158.414 517.378 158.414C521.192 158.414 524.767 157.508 528.104 155.696C531.537 153.789 533.873 151.31 535.113 148.259L551.56 152.836C549.749 156.65 547.127 160.035 543.694 162.991C540.357 165.946 536.4 168.283 531.823 169.999C527.246 171.62 522.193 172.43 516.662 172.43ZM497.068 127.521H536.257C535.875 123.707 534.779 120.417 532.967 117.652C531.251 114.791 528.963 112.598 526.102 111.073C523.242 109.452 520.047 108.641 516.519 108.641C513.087 108.641 509.94 109.452 507.08 111.073C504.315 112.598 502.026 114.791 500.215 117.652C498.498 120.417 497.449 123.707 497.068 127.521ZM612.15 112.646C606.334 112.646 601.137 113.79 596.561 116.079C591.984 118.272 588.694 121.466 586.692 125.661V171H567.527V96.0551H585.119V112.074C587.789 106.925 591.173 102.873 595.273 99.9168C599.374 96.9609 603.712 95.34 608.289 95.0539C609.338 95.0539 610.148 95.0539 610.72 95.0539C611.292 95.0539 611.769 95.1016 612.15 95.197V112.646Z" fill="white"/>
</svg>
