<svg width="389" height="128" viewBox="0 0 389 168" fill="none" xmlns="http://www.w3.org/2000/svg">
<path d="M273.446 35.2922C265.428 32.3703 256.952 30.9041 248.417 30.9626C220.818 30.9626 201.327 44.8656 201.189 64.8232C201.016 79.4851 215.04 87.7476 225.648 92.6464C236.533 97.6832 240.172 100.857 240.138 105.359C240.069 112.207 231.444 115.312 223.423 115.312C212.401 115.312 206.381 113.777 197.118 109.93L193.685 108.326L189.77 131.302C196.48 134.097 208.571 136.494 221.06 136.701C250.401 136.701 269.582 122.885 269.807 101.651C270.048 89.9383 262.458 81.0893 246.486 73.7756C236.774 69.032 230.754 65.8581 230.754 61.0455C230.754 56.7849 235.912 52.2311 246.693 52.2311C253.868 52.0575 260.998 53.4037 267.616 56.1812L270.203 57.3369L274.119 35.137L273.446 35.2922ZM345.066 32.8256H323.504C316.794 32.8256 311.74 34.6712 308.808 41.3295L267.34 135.27H296.681L302.546 119.866L338.356 119.9C339.201 123.506 341.788 135.27 341.788 135.27H367.662L345.066 32.8256ZM161.498 31.9631H189.459L171.968 134.459H144.041L161.498 31.9286V31.9631ZM90.5166 88.4548L93.4145 102.686L120.738 32.8256H150.355L106.352 135.132H76.8034L52.6542 48.5052C52.2631 47.0768 51.3446 45.8501 50.0841 45.0726C41.38 40.5763 32.1576 37.1642 22.623 34.9127L23.0025 32.7565H68.0062C74.1125 32.998 79.0285 34.9127 80.6672 41.433L90.4994 88.5066L90.5166 88.4548ZM310.567 98.9079L321.71 70.2395C321.572 70.55 324.004 64.3229 325.419 60.4763L327.333 69.3253L333.802 98.8907H310.55L310.567 98.9079Z" fill="white"/>
</svg>
